<?xml version="1.0" encoding="utf-8"?>
<!-- Generator: Adobe Illustrator 23.0.1, SVG Export Plug-In . SVG Version: 6.00 Build 0)  -->
<svg version="1.1" id="Warstwa_1" xmlns="http://www.w3.org/2000/svg" xmlns:xlink="http://www.w3.org/1999/xlink" x="0px" y="0px"
	 viewBox="0 0 129 39" style="enable-background:new 0 0 129 39;" xml:space="preserve">
<style type="text/css">
	.st0{fill:#FFFFFF;}
</style>
<g>
	<polygon class="st0" points="52.7,34.7 53.8,34.7 53.8,31 57.4,31 57.4,30.1 53.8,30.1 53.8,27.6 57.9,27.6 57.9,26.7 52.7,26.7 	
		"/>
	<rect x="59.1" y="26.7" class="st0" width="0.9" height="0.9"/>
	<rect x="59.1" y="28.9" class="st0" width="0.9" height="5.7"/>
	<path class="st0" d="M66,29.4c-0.2-0.2-0.4-0.3-0.6-0.4c-0.3-0.1-0.6-0.2-0.9-0.2c-0.9,0-1.5,0.3-1.9,1h0v-0.9h-0.9v5.7h0.9v-3.2
		c0-0.3,0-0.5,0.1-0.7c0.1-0.2,0.2-0.4,0.3-0.6c0.1-0.2,0.3-0.3,0.5-0.4c0.2-0.1,0.5-0.1,0.7-0.1c0.4,0,0.6,0.1,0.9,0.3
		c0.2,0.2,0.3,0.5,0.3,0.8v3.9h0.9v-3.8c0-0.3,0-0.6-0.1-0.8C66.2,29.8,66.1,29.6,66,29.4z"/>
	<path class="st0" d="M71.7,29.1c-0.2-0.1-0.4-0.2-0.7-0.2c-0.3,0-0.5-0.1-0.8-0.1c-0.3,0-0.6,0-0.9,0.1c-0.3,0.1-0.5,0.2-0.8,0.3
		c-0.2,0.2-0.4,0.4-0.5,0.6c-0.1,0.2-0.2,0.5-0.2,0.9h0.9c0-0.4,0.2-0.7,0.4-0.9c0.3-0.2,0.6-0.2,1-0.2c0.1,0,0.3,0,0.4,0
		c0.2,0,0.3,0.1,0.4,0.1c0.1,0.1,0.2,0.2,0.3,0.3c0.1,0.1,0.1,0.3,0.1,0.5c0,0.2,0,0.3-0.2,0.4c-0.1,0.1-0.2,0.2-0.4,0.2
		c-0.2,0-0.4,0.1-0.6,0.1c-0.2,0-0.5,0.1-0.7,0.1c-0.2,0-0.5,0.1-0.7,0.2c-0.2,0.1-0.4,0.2-0.6,0.3c-0.2,0.1-0.3,0.3-0.4,0.5
		c-0.1,0.2-0.2,0.5-0.2,0.8c0,0.3,0,0.5,0.1,0.7c0.1,0.2,0.2,0.4,0.4,0.5c0.2,0.1,0.4,0.2,0.6,0.3c0.2,0.1,0.5,0.1,0.7,0.1
		c0.4,0,0.8-0.1,1.1-0.2c0.3-0.1,0.6-0.4,0.9-0.7v0.8h0.9v-4.3c0-0.3-0.1-0.6-0.2-0.8C72.1,29.4,71.9,29.2,71.7,29.1z M71.4,32.7
		c0,0.1,0,0.3-0.1,0.4c-0.1,0.2-0.2,0.3-0.3,0.4c-0.1,0.1-0.3,0.2-0.5,0.3C70.3,33.9,70,34,69.7,34c-0.1,0-0.3,0-0.4,0
		c-0.1,0-0.3-0.1-0.4-0.1c-0.1-0.1-0.2-0.2-0.2-0.3c-0.1-0.1-0.1-0.2-0.1-0.4c0-0.2,0.1-0.4,0.2-0.6c0.1-0.1,0.2-0.2,0.4-0.3
		c0.2-0.1,0.4-0.1,0.6-0.2c0.2,0,0.4-0.1,0.6-0.1c0.2,0,0.4-0.1,0.6-0.1c0.2,0,0.3-0.1,0.5-0.2V32.7z"/>
	<path class="st0" d="M78.3,29.4c-0.2-0.2-0.4-0.3-0.6-0.4c-0.3-0.1-0.6-0.2-0.9-0.2c-0.8,0-1.5,0.3-1.9,1h0v-0.9H74v5.7h0.9v-3.2
		c0-0.3,0-0.5,0.1-0.7c0.1-0.2,0.2-0.4,0.3-0.6c0.1-0.2,0.3-0.3,0.5-0.4c0.2-0.1,0.5-0.1,0.7-0.1c0.4,0,0.6,0.1,0.9,0.3
		c0.2,0.2,0.3,0.5,0.3,0.8v3.9h0.9v-3.8c0-0.3,0-0.6-0.1-0.8C78.5,29.8,78.4,29.6,78.3,29.4z"/>
	<path class="st0" d="M84.2,31.8c-0.2-0.1-0.4-0.2-0.6-0.3c-0.2-0.1-0.5-0.1-0.7-0.2c-0.2-0.1-0.4-0.1-0.7-0.1
		c-0.2,0-0.4-0.1-0.6-0.2c-0.2-0.1-0.3-0.2-0.4-0.3C81,30.7,81,30.5,81,30.4c0-0.1,0-0.3,0.1-0.4c0.1-0.1,0.2-0.2,0.3-0.2
		c0.1-0.1,0.2-0.1,0.4-0.1c0.1,0,0.3,0,0.4,0c0.2,0,0.3,0,0.5,0c0.2,0,0.3,0.1,0.4,0.2c0.1,0.1,0.2,0.2,0.3,0.3
		c0.1,0.1,0.1,0.3,0.1,0.5h0.9c0-0.3-0.1-0.6-0.2-0.9c-0.1-0.2-0.3-0.4-0.5-0.6c-0.2-0.1-0.5-0.2-0.7-0.3c-0.3-0.1-0.6-0.1-0.9-0.1
		c-0.3,0-0.5,0-0.8,0.1c-0.3,0.1-0.5,0.2-0.7,0.3c-0.2,0.1-0.4,0.3-0.5,0.5c-0.1,0.2-0.2,0.5-0.2,0.7c0,0.4,0.1,0.7,0.3,0.9
		c0.2,0.2,0.4,0.4,0.7,0.5c0.3,0.1,0.6,0.2,0.9,0.3c0.3,0.1,0.6,0.1,0.9,0.2c0.3,0.1,0.5,0.2,0.7,0.3c0.2,0.1,0.3,0.3,0.3,0.6
		c0,0.2,0,0.3-0.1,0.4c-0.1,0.1-0.2,0.2-0.3,0.3c-0.1,0.1-0.3,0.1-0.4,0.1c-0.2,0-0.3,0-0.5,0c-0.2,0-0.4,0-0.6-0.1
		c-0.2,0-0.3-0.1-0.5-0.2c-0.1-0.1-0.3-0.2-0.4-0.3c-0.1-0.1-0.1-0.3-0.1-0.5h-0.9c0,0.4,0.1,0.7,0.2,0.9c0.1,0.2,0.3,0.4,0.5,0.6
		c0.2,0.2,0.5,0.3,0.8,0.3c0.3,0.1,0.6,0.1,0.9,0.1c0.3,0,0.6,0,0.9-0.1c0.3-0.1,0.6-0.2,0.8-0.3c0.2-0.1,0.4-0.3,0.6-0.6
		c0.1-0.2,0.2-0.5,0.2-0.9c0-0.3-0.1-0.5-0.2-0.7C84.5,32.1,84.3,32,84.2,31.8z"/>
	<polygon class="st0" points="87.8,28.1 88.8,28.1 89.8,26.7 88.8,26.7 	"/>
	<path class="st0" d="M90.5,29.7c-0.2-0.3-0.5-0.5-0.9-0.6c-0.3-0.2-0.7-0.2-1.2-0.2c-0.5,0-0.9,0.1-1.2,0.2
		c-0.3,0.2-0.6,0.4-0.9,0.6c-0.2,0.3-0.4,0.6-0.5,1c-0.1,0.4-0.2,0.8-0.2,1.2c0,0.4,0.1,0.8,0.2,1.2c0.1,0.4,0.3,0.7,0.5,0.9
		c0.2,0.3,0.5,0.5,0.9,0.6c0.3,0.2,0.7,0.2,1.2,0.2c0.5,0,0.9-0.1,1.2-0.2c0.3-0.2,0.6-0.4,0.9-0.6c0.2-0.3,0.4-0.6,0.5-0.9
		c0.1-0.4,0.2-0.8,0.2-1.2c0-0.4-0.1-0.8-0.2-1.2C90.9,30.3,90.8,29.9,90.5,29.7z M90.1,32.7c-0.1,0.3-0.2,0.5-0.4,0.7
		c-0.2,0.2-0.4,0.3-0.6,0.4c-0.2,0.1-0.4,0.1-0.7,0.1c-0.2,0-0.5,0-0.7-0.1c-0.2-0.1-0.4-0.2-0.6-0.4c-0.2-0.2-0.3-0.4-0.4-0.7
		c-0.1-0.3-0.1-0.6-0.1-0.9c0-0.3,0-0.7,0.1-0.9c0.1-0.3,0.2-0.5,0.4-0.7c0.2-0.2,0.4-0.3,0.6-0.4c0.2-0.1,0.4-0.1,0.7-0.1
		c0.2,0,0.5,0,0.7,0.1c0.2,0.1,0.4,0.2,0.6,0.4c0.2,0.2,0.3,0.4,0.4,0.7c0.1,0.3,0.1,0.6,0.1,0.9C90.2,32.1,90.2,32.5,90.1,32.7z"/>
	<polygon class="st0" points="97.6,33.6 97.5,33.6 96.3,28.9 95.3,28.9 94.2,33.6 94.1,33.6 92.8,28.9 91.8,28.9 93.6,34.7 
		94.7,34.7 95.8,30.1 95.8,30.1 97,34.7 98,34.7 99.8,28.9 98.8,28.9 	"/>
	<polygon class="st0" points="57.1,20.3 57,20.3 55.2,14.9 52.7,14.9 52.7,22.8 54.4,22.8 54.4,17.2 54.4,17.2 56.3,22.8 57.7,22.8 
		59.6,17.2 59.6,17.2 59.6,22.8 61.3,22.8 61.3,14.9 58.8,14.9 	"/>
	<rect x="63" y="14.9" class="st0" width="1.6" height="1.3"/>
	<rect x="63" y="17.1" class="st0" width="1.6" height="5.7"/>
	<path class="st0" d="M67.6,19.8c0-0.6,0.1-1,0.3-1.3c0.2-0.3,0.5-0.4,0.9-0.4c0.4,0,0.6,0.1,0.8,0.4c0.1,0.2,0.2,0.6,0.2,1.1v3.2
		h1.6v-3.5c0-0.4,0-0.7-0.1-1c-0.1-0.3-0.2-0.5-0.3-0.7c-0.2-0.2-0.4-0.4-0.6-0.5c-0.3-0.1-0.6-0.2-1-0.2c-0.3,0-0.7,0.1-1,0.2
		c-0.3,0.2-0.6,0.4-0.8,0.7h0v-0.8H66v5.7h1.6V19.8z"/>
	<rect x="72.9" y="14.9" class="st0" width="1.6" height="1.3"/>
	<rect x="72.9" y="17.1" class="st0" width="1.6" height="5.7"/>
	<path class="st0" d="M80.8,21.9c0.2-0.3,0.2-0.6,0.2-0.9c0-0.3-0.1-0.5-0.2-0.7c-0.1-0.2-0.2-0.3-0.4-0.5c-0.2-0.1-0.4-0.2-0.6-0.3
		c-0.2-0.1-0.4-0.1-0.7-0.2c-0.2-0.1-0.4-0.1-0.7-0.1c-0.2,0-0.4-0.1-0.6-0.1c-0.2-0.1-0.3-0.1-0.4-0.2c-0.1-0.1-0.2-0.2-0.2-0.3
		c0-0.1,0-0.2,0.1-0.3c0.1-0.1,0.1-0.1,0.2-0.2c0.1,0,0.2-0.1,0.3-0.1c0.1,0,0.2,0,0.3,0c0.3,0,0.5,0.1,0.7,0.2
		c0.2,0.1,0.3,0.3,0.3,0.6h1.5c0-0.4-0.1-0.6-0.3-0.9c-0.2-0.2-0.3-0.4-0.6-0.6c-0.2-0.1-0.5-0.2-0.8-0.3c-0.3-0.1-0.6-0.1-0.9-0.1
		c-0.3,0-0.6,0-0.9,0.1c-0.3,0.1-0.6,0.2-0.8,0.3c-0.2,0.1-0.4,0.3-0.6,0.6c-0.1,0.2-0.2,0.5-0.2,0.9c0,0.3,0,0.5,0.2,0.6
		c0.1,0.2,0.2,0.3,0.4,0.4c0.2,0.1,0.4,0.2,0.6,0.3c0.2,0.1,0.4,0.1,0.7,0.2c0.6,0.1,1,0.2,1.3,0.4c0.3,0.1,0.5,0.3,0.5,0.5
		c0,0.1,0,0.3-0.1,0.4c-0.1,0.1-0.2,0.2-0.2,0.2c-0.1,0.1-0.2,0.1-0.3,0.1c-0.1,0-0.2,0-0.3,0c-0.2,0-0.3,0-0.4-0.1
		c-0.1,0-0.3-0.1-0.4-0.2c-0.1-0.1-0.2-0.2-0.3-0.3c-0.1-0.1-0.1-0.3-0.1-0.4h-1.5c0,0.4,0.1,0.7,0.3,1c0.2,0.3,0.4,0.5,0.6,0.6
		c0.2,0.2,0.5,0.3,0.8,0.3c0.3,0.1,0.6,0.1,1,0.1c0.3,0,0.6,0,1-0.1c0.3-0.1,0.6-0.2,0.8-0.3C80.5,22.4,80.7,22.2,80.8,21.9z"/>
	<path class="st0" d="M84.3,15.3h-1.6v1.7h-1v1.1h1V21c0,1,0.6,1.7,1.9,1.7h0.9v-1.2H85c-0.5,0-0.8-0.2-0.8-0.8v-2.7h1.2v-1.1h-1.2
		V15.3z"/>
	<path class="st0" d="M105.9,15.3h-1.6v1.7h-1v1.1h1V21c0,1,0.6,1.7,1.9,1.7h0.9v-1.2h-0.4c-0.5,0-0.8-0.2-0.8-0.8v-2.7h1.2v-1.1
		h-1.2V15.3z"/>
	<path class="st0" d="M87,22.1c0.3,0.3,0.6,0.5,0.9,0.6c0.4,0.1,0.8,0.2,1.2,0.2c0.7,0,1.2-0.1,1.7-0.4c0.5-0.3,0.8-0.8,1-1.5h-1.4
		c-0.1,0.2-0.2,0.3-0.4,0.5c-0.2,0.2-0.5,0.2-0.8,0.2c-0.4,0-0.8-0.1-1-0.3c-0.2-0.2-0.4-0.6-0.4-1.1h4.1c0-0.4,0-0.9-0.1-1.3
		c-0.1-0.4-0.3-0.8-0.5-1.1c-0.2-0.3-0.5-0.6-0.9-0.8c-0.4-0.2-0.8-0.3-1.3-0.3c-0.4,0-0.8,0.1-1.2,0.2c-0.4,0.2-0.7,0.4-0.9,0.6
		c-0.3,0.3-0.5,0.6-0.6,1c-0.1,0.4-0.2,0.8-0.2,1.2c0,0.4,0.1,0.9,0.2,1.2C86.5,21.5,86.7,21.8,87,22.1z M87.8,18.9
		c0-0.1,0.1-0.3,0.2-0.4c0.1-0.1,0.2-0.2,0.4-0.3c0.2-0.1,0.4-0.1,0.6-0.1c0.4,0,0.7,0.1,0.9,0.3c0.2,0.2,0.3,0.5,0.4,0.9h-2.6
		C87.8,19.2,87.8,19.1,87.8,18.9z"/>
	<path class="st0" d="M102.1,19.8c-0.2-0.1-0.4-0.2-0.6-0.3c-0.2-0.1-0.4-0.1-0.7-0.2c-0.2-0.1-0.4-0.1-0.7-0.1
		c-0.2,0-0.4-0.1-0.6-0.1c-0.2-0.1-0.3-0.1-0.4-0.2c-0.1-0.1-0.2-0.2-0.2-0.3c0-0.1,0-0.2,0.1-0.3c0.1-0.1,0.1-0.1,0.2-0.2
		c0.1,0,0.2-0.1,0.3-0.1c0.1,0,0.2,0,0.3,0c0.3,0,0.5,0.1,0.7,0.2c0.2,0.1,0.3,0.3,0.3,0.6h1.5c0-0.4-0.1-0.6-0.3-0.9
		c-0.2-0.2-0.3-0.4-0.6-0.6c-0.2-0.1-0.5-0.2-0.8-0.3c-0.3-0.1-0.6-0.1-0.9-0.1c-0.3,0-0.6,0-0.9,0.1c-0.3,0.1-0.6,0.2-0.8,0.3
		c-0.2,0.1-0.4,0.3-0.6,0.6c-0.1,0.2-0.2,0.5-0.2,0.9c0,0.3,0,0.5,0.2,0.6c0.1,0.2,0.2,0.3,0.4,0.4c0.2,0.1,0.4,0.2,0.6,0.3
		c0.2,0.1,0.4,0.1,0.7,0.2c0.6,0.1,1,0.2,1.3,0.4c0.3,0.1,0.5,0.3,0.5,0.5c0,0.1,0,0.3-0.1,0.4c-0.1,0.1-0.2,0.2-0.2,0.2
		c-0.1,0.1-0.2,0.1-0.3,0.1c-0.1,0-0.2,0-0.3,0c-0.2,0-0.3,0-0.4-0.1c-0.1,0-0.3-0.1-0.4-0.2c-0.1-0.1-0.2-0.2-0.3-0.3
		c-0.1-0.1-0.1-0.3-0.1-0.4h-1.5c0,0.4,0.1,0.7,0.3,1c0.2,0.3,0.4,0.5,0.6,0.6c0.2,0.2,0.5,0.3,0.8,0.3c0.3,0.1,0.6,0.1,1,0.1
		c0.3,0,0.6,0,1-0.1c0.3-0.1,0.6-0.2,0.8-0.3c0.2-0.2,0.4-0.4,0.6-0.6c0.1-0.3,0.2-0.6,0.2-0.9c0-0.3-0.1-0.5-0.2-0.7
		C102.4,20.1,102.3,19.9,102.1,19.8z"/>
	<polygon class="st0" points="114,20.9 114,20.9 113,17.1 111.5,17.1 110.5,21 110.5,21 109.5,17.1 107.8,17.1 109.6,22.8 
		111.3,22.8 112.2,18.9 112.3,18.9 113.3,22.8 114.9,22.8 116.7,17.1 115.1,17.1 	"/>
	<path class="st0" d="M122.8,18.7c-0.1-0.4-0.3-0.7-0.6-1c-0.3-0.3-0.6-0.5-0.9-0.6c-0.4-0.1-0.8-0.2-1.2-0.2
		c-0.5,0-0.9,0.1-1.2,0.2c-0.4,0.1-0.7,0.3-0.9,0.6c-0.3,0.3-0.5,0.6-0.6,1c-0.1,0.4-0.2,0.8-0.2,1.2c0,0.5,0.1,0.9,0.2,1.2
		c0.1,0.4,0.3,0.7,0.6,0.9c0.3,0.3,0.6,0.5,0.9,0.6c0.4,0.1,0.8,0.2,1.2,0.2c0.5,0,0.9-0.1,1.2-0.2c0.4-0.1,0.7-0.3,0.9-0.6
		c0.3-0.3,0.5-0.6,0.6-0.9c0.1-0.4,0.2-0.8,0.2-1.2C123,19.5,122.9,19.1,122.8,18.7z M121.4,20.6c0,0.2-0.1,0.4-0.2,0.6
		c-0.1,0.2-0.3,0.3-0.4,0.4c-0.2,0.1-0.4,0.2-0.7,0.2c-0.3,0-0.5-0.1-0.7-0.2c-0.2-0.1-0.3-0.2-0.4-0.4c-0.1-0.2-0.2-0.4-0.2-0.6
		c0-0.2-0.1-0.4-0.1-0.7c0-0.2,0-0.5,0.1-0.7c0-0.2,0.1-0.4,0.2-0.6c0.1-0.2,0.2-0.3,0.4-0.4c0.2-0.1,0.4-0.2,0.7-0.2
		c0.3,0,0.5,0.1,0.7,0.2c0.2,0.1,0.3,0.2,0.4,0.4c0.1,0.2,0.2,0.4,0.2,0.6c0,0.2,0.1,0.4,0.1,0.7C121.4,20.2,121.4,20.4,121.4,20.6z
		"/>
	<path class="st0" d="M94.7,20c0-1,0.7-1.8,2.1-1.7V17c-0.9,0-1.8,0.2-2.2,0.8h0v-0.7h-1.5v5.7h1.6V20z"/>
	<path class="st0" d="M46.6,9.9V2.2C37.9,2.3,30.8,9.4,30.6,18c1.3-0.3,2.5-0.4,3.8-0.4l3.9,0C38.8,13.3,42.3,10,46.6,9.9z"/>
	<path class="st0" d="M38.3,26.4v-7.7h-3.8c-1.3,0-2.6,0.2-3.8,0.5v8.2c1.2-0.6,2.5-0.9,3.8-0.9H38.3z"/>
	<path class="st0" d="M30.6,34.6h7.7v-7.1h-3.8c-1.3,0-2.6,0.3-3.7,1l-0.1,0.1V34.6z"/>
	<rect x="39.4" y="18.7" class="st0" width="3" height="7.7"/>
	<path class="st0" d="M18.3,34.6h7.7c-0.1-3.7-1.4-7.4-3.8-10.2C19.7,27.2,18.3,30.9,18.3,34.6z"/>
	<path class="st0" d="M17.5,31.4c0.6-2.9,1.9-5.6,3.8-7.8c-3.1-3.2-7.2-4.9-11.6-4.9h-8v15.9l7.7,0v-8.2h0.3
		C13.2,26.4,16.1,28.3,17.5,31.4z"/>
	<path class="st0" d="M29.5,28v-8.5c-2.5,0.8-4.8,2.2-6.7,4.1c1.9,2.2,3.3,4.9,3.8,7.8C27.3,30,28.3,28.8,29.5,28z"/>
</g>
</svg>
