<?xml version="1.0" encoding="utf-8"?>
<!-- Generator: Adobe Illustrator 23.0.1, SVG Export Plug-In . SVG Version: 6.00 Build 0)  -->
<svg version="1.1" id="Warstwa_1" xmlns="http://www.w3.org/2000/svg" xmlns:xlink="http://www.w3.org/1999/xlink" x="0px" y="0px"
	 viewBox="0 0 106.2 63.6" style="enable-background:new 0 0 106.2 63.6;" xml:space="preserve">
<style type="text/css">
	.st0{fill:#134391;}
	.st1{fill:#FEEB17;}
	.st2{fill:#E20E17;}
	.st3{fill:#FFFFFF;}
	.st4{fill:#1E1E1C;}
</style>
<g id="XMLID_169_">
	<g id="XMLID_170_">
		<polygon id="XMLID_174_" class="st0" points="23.6,56.2 0,51.7 0,16.2 23.6,8.8 		"/>
		<path id="XMLID_173_" class="st1" d="M0,43.2V34c1.2,0.3,2.5,0.5,3.4-0.1c1.9-1.1,4.8-4.6,4.8-4.6s-1.5,3.8-1,5.1
			c0.6,1.5,4.2,1.5,4.2,1.5s-4.1,2.5-6,4.1c-2,1.7-3.3,7.9-3.3,7.9S1.2,44,0,43.2"/>
		<path id="XMLID_172_" class="st2" d="M23.6,26.9c-0.8,0.5-1.6,0.9-2.2,1c-1.9,0.4-3.9-1.8-3.9-1.8s0.5,3.2-0.7,5.2
			c-1.3,2.1-5.3,4.7-5.3,4.7s4.5-0.9,5.3,0.5c0.9,1.5,1,6.7,1,6.7s2.3-6.2,4.3-7.1c0.4-0.2,0.9-0.3,1.4-0.5V26.9z"/>
		<path id="XMLID_171_" class="st3" d="M8.2,29.3c0,0,2.3-3.6,2.1-4.9c-0.1-1.2-2.5-1.6-2.5-1.6s3.1-0.8,4.5-2
			c1.3-1.2,2.4-3.6,2.4-3.6s0.3,2,1.5,2.3c1.2,0.3,4.4-1,4.4-1s-2.5,2.4-3.5,3.7c-1,1.4,0.4,3.9,0.4,3.9s-2.7-0.9-4.2-0.7
			C11.8,25.8,8.2,29.3,8.2,29.3"/>
	</g>
	<g>
		<path class="st4" d="M35.5,26.6v-8.9h5.6v1.4h-4v2.3h3.5v1.4h-3.5v3.9H35.5z"/>
		<path class="st4" d="M47.6,26.2c-0.3,0.1-0.7,0.2-1.2,0.2c-0.5,0.1-1,0.1-1.6,0.1c-0.5,0-1-0.1-1.4-0.2c-0.4-0.2-0.7-0.4-0.9-0.6
			c-0.2-0.3-0.4-0.6-0.5-1C42,24.4,42,24,42,23.5v-3.8h1.5v3.5c0,0.7,0.1,1.2,0.3,1.5c0.2,0.3,0.6,0.5,1.1,0.5c0.2,0,0.4,0,0.6,0
			c0.2,0,0.4,0,0.5-0.1v-5.4h1.5V26.2z"/>
		<path class="st4" d="M49.5,20.1c0.3-0.1,0.7-0.2,1.2-0.2c0.5-0.1,1-0.1,1.6-0.1c0.5,0,1,0.1,1.4,0.2c0.4,0.1,0.7,0.4,0.9,0.6
			c0.2,0.3,0.4,0.6,0.5,1c0.1,0.4,0.1,0.8,0.1,1.2v3.8h-1.5v-3.5c0-0.4,0-0.7-0.1-0.9c0-0.3-0.1-0.5-0.2-0.6
			c-0.1-0.2-0.3-0.3-0.4-0.3c-0.2-0.1-0.4-0.1-0.7-0.1c-0.2,0-0.4,0-0.6,0c-0.2,0-0.4,0-0.5,0.1v5.4h-1.5V20.1z"/>
		<path class="st4" d="M62.5,26.2c-0.3,0.1-0.7,0.2-1.2,0.3c-0.5,0.1-1,0.1-1.5,0.1c-0.5,0-1-0.1-1.4-0.2c-0.4-0.2-0.8-0.4-1.1-0.7
			c-0.3-0.3-0.5-0.7-0.7-1.1c-0.2-0.4-0.2-0.9-0.2-1.5c0-0.5,0.1-1,0.2-1.4c0.1-0.4,0.3-0.8,0.6-1.1c0.3-0.3,0.6-0.5,0.9-0.7
			c0.4-0.2,0.8-0.2,1.3-0.2c0.3,0,0.6,0,0.9,0.1c0.2,0.1,0.5,0.2,0.6,0.3v-2l1.5-0.3V26.2z M58.1,23.1c0,0.7,0.2,1.2,0.5,1.6
			c0.3,0.4,0.8,0.6,1.3,0.6c0.2,0,0.5,0,0.6,0c0.2,0,0.3,0,0.4-0.1v-3.8c-0.1-0.1-0.3-0.2-0.5-0.3c-0.2-0.1-0.5-0.1-0.7-0.1
			c-0.6,0-1,0.2-1.2,0.6C58.2,21.9,58.1,22.4,58.1,23.1z"/>
		<path class="st4" d="M69.9,26.2c-0.3,0.1-0.7,0.2-1.2,0.2c-0.5,0.1-1,0.1-1.6,0.1c-0.5,0-1-0.1-1.4-0.2c-0.4-0.2-0.7-0.4-0.9-0.6
			c-0.2-0.3-0.4-0.6-0.5-1c-0.1-0.4-0.1-0.8-0.1-1.2v-3.8h1.5v3.5c0,0.7,0.1,1.2,0.3,1.5c0.2,0.3,0.6,0.5,1.1,0.5c0.2,0,0.4,0,0.6,0
			c0.2,0,0.4,0,0.5-0.1v-5.4h1.5V26.2z"/>
		<path class="st4" d="M73.5,25.3c0.4,0,0.7,0,0.9-0.1c0.2-0.1,0.3-0.3,0.3-0.5c0-0.2-0.1-0.4-0.3-0.6c-0.2-0.1-0.5-0.3-1-0.5
			c-0.3-0.1-0.5-0.2-0.8-0.3c-0.2-0.1-0.4-0.2-0.6-0.4c-0.2-0.2-0.3-0.3-0.4-0.6c-0.1-0.2-0.1-0.5-0.1-0.8c0-0.6,0.2-1.1,0.7-1.5
			c0.5-0.4,1.1-0.5,1.8-0.5c0.4,0,0.8,0,1.1,0.1c0.4,0.1,0.6,0.1,0.8,0.2l-0.3,1.3c-0.2-0.1-0.4-0.1-0.7-0.2
			c-0.3-0.1-0.6-0.1-0.9-0.1c-0.3,0-0.6,0.1-0.8,0.2c-0.2,0.1-0.3,0.3-0.3,0.5c0,0.1,0,0.2,0.1,0.3c0,0.1,0.1,0.2,0.2,0.2
			c0.1,0.1,0.2,0.1,0.4,0.2c0.2,0.1,0.3,0.1,0.6,0.2c0.4,0.1,0.7,0.3,0.9,0.4c0.3,0.1,0.5,0.3,0.6,0.4c0.2,0.2,0.3,0.4,0.4,0.6
			c0.1,0.2,0.1,0.5,0.1,0.8c0,0.6-0.2,1.1-0.7,1.5c-0.5,0.3-1.2,0.5-2,0.5c-0.6,0-1.1,0-1.4-0.1c-0.4-0.1-0.6-0.2-0.8-0.2l0.3-1.3
			c0.2,0.1,0.5,0.2,0.8,0.3C72.7,25.3,73.1,25.3,73.5,25.3z"/>
		<path class="st4" d="M82.3,21c-0.2,0.2-0.4,0.4-0.7,0.8c-0.3,0.3-0.6,0.7-0.9,1.1c-0.3,0.4-0.6,0.8-1,1.2
			c-0.3,0.4-0.6,0.8-0.9,1.2h3.5v1.3H77v-1c0.2-0.3,0.4-0.7,0.7-1.1c0.3-0.4,0.6-0.8,0.9-1.2c0.3-0.4,0.6-0.8,0.9-1.2
			c0.3-0.4,0.6-0.7,0.8-1h-3.1v-1.3h5.1V21z"/>
		<path class="st4" d="M83.1,23.1c0-0.6,0.1-1.1,0.3-1.5c0.2-0.4,0.4-0.8,0.7-1.1c0.3-0.3,0.6-0.5,1-0.7c0.4-0.1,0.8-0.2,1.2-0.2
			c0.9,0,1.6,0.3,2.2,0.9c0.5,0.6,0.8,1.4,0.8,2.6c0,0.1,0,0.2,0,0.3c0,0.1,0,0.2,0,0.3h-4.4c0,0.5,0.2,1,0.6,1.2
			c0.3,0.3,0.8,0.4,1.5,0.4c0.4,0,0.7,0,1-0.1c0.3-0.1,0.6-0.1,0.7-0.2l0.2,1.3c-0.1,0-0.2,0.1-0.4,0.1c-0.1,0-0.3,0.1-0.5,0.1
			c-0.2,0-0.4,0.1-0.6,0.1c-0.2,0-0.4,0-0.7,0c-0.6,0-1.1-0.1-1.5-0.3c-0.4-0.2-0.8-0.4-1.1-0.7c-0.3-0.3-0.5-0.7-0.6-1.1
			S83.1,23.6,83.1,23.1z M87.6,22.4c0-0.2,0-0.4-0.1-0.6c-0.1-0.2-0.1-0.4-0.3-0.5c-0.1-0.1-0.3-0.3-0.4-0.3
			c-0.2-0.1-0.4-0.1-0.6-0.1c-0.2,0-0.4,0-0.6,0.1c-0.2,0.1-0.3,0.2-0.5,0.4c-0.1,0.1-0.2,0.3-0.3,0.5c-0.1,0.2-0.1,0.4-0.1,0.6
			H87.6z"/>
		<path class="st4" d="M35.5,38.4v-8.9h5.7v1.4h-4.1v2.2h3.6v1.3h-3.6V37h4.4v1.4H35.5z"/>
		<path class="st4" d="M48.1,38.1c-0.3,0.1-0.7,0.2-1.2,0.2c-0.5,0.1-1,0.1-1.6,0.1c-0.5,0-1-0.1-1.4-0.2c-0.4-0.2-0.7-0.4-0.9-0.6
			c-0.2-0.3-0.4-0.6-0.5-1c-0.1-0.4-0.1-0.8-0.1-1.2v-3.8h1.5v3.5c0,0.7,0.1,1.2,0.3,1.5c0.2,0.3,0.6,0.5,1.1,0.5c0.2,0,0.4,0,0.6,0
			c0.2,0,0.4,0,0.5-0.1v-5.4h1.5V38.1z"/>
		<path class="st4" d="M53.8,33.1c-0.1,0-0.3-0.1-0.5-0.1c-0.2,0-0.5-0.1-0.8-0.1c-0.2,0-0.4,0-0.5,0.1c-0.2,0-0.3,0.1-0.4,0.1v5.4
			H50V32c0.3-0.1,0.7-0.2,1.1-0.3c0.4-0.1,0.9-0.1,1.5-0.1c0.1,0,0.2,0,0.4,0c0.1,0,0.3,0,0.4,0.1c0.1,0,0.3,0,0.4,0.1
			c0.1,0,0.2,0.1,0.3,0.1L53.8,33.1z"/>
		<path class="st4" d="M61.1,34.9c0,0.5-0.1,1-0.2,1.4c-0.2,0.4-0.4,0.8-0.7,1.1c-0.3,0.3-0.6,0.5-1,0.7c-0.4,0.2-0.8,0.3-1.3,0.3
			c-0.5,0-0.9-0.1-1.3-0.3c-0.4-0.2-0.7-0.4-1-0.7c-0.3-0.3-0.5-0.7-0.7-1.1c-0.2-0.4-0.2-0.9-0.2-1.4c0-0.5,0.1-1,0.2-1.4
			c0.2-0.4,0.4-0.8,0.7-1.1c0.3-0.3,0.6-0.5,1-0.7c0.4-0.2,0.8-0.2,1.3-0.2c0.5,0,0.9,0.1,1.3,0.2c0.4,0.2,0.7,0.4,1,0.7
			c0.3,0.3,0.5,0.7,0.7,1.1C61,33.9,61.1,34.4,61.1,34.9z M59.5,34.9c0-0.7-0.1-1.2-0.4-1.6c-0.3-0.4-0.7-0.6-1.2-0.6
			c-0.5,0-0.9,0.2-1.2,0.6s-0.4,0.9-0.4,1.6c0,0.7,0.1,1.2,0.4,1.6c0.3,0.4,0.7,0.6,1.2,0.6c0.5,0,0.9-0.2,1.2-0.6
			C59.4,36.1,59.5,35.6,59.5,34.9z"/>
		<path class="st4" d="M68.7,35.1c0,0.5-0.1,1-0.2,1.4c-0.1,0.4-0.3,0.8-0.6,1.1c-0.2,0.3-0.6,0.5-0.9,0.7c-0.4,0.2-0.8,0.3-1.3,0.3
			c-0.3,0-0.6,0-0.9-0.1c-0.3-0.1-0.5-0.2-0.7-0.3v2.6h-1.5v-8.8c0.3-0.1,0.7-0.2,1.2-0.2c0.5-0.1,0.9-0.1,1.5-0.1
			c0.5,0,1,0.1,1.4,0.2s0.8,0.4,1.1,0.7c0.3,0.3,0.5,0.7,0.7,1.1C68.6,34,68.7,34.5,68.7,35.1z M67.1,35.1c0-0.7-0.2-1.2-0.5-1.6
			c-0.3-0.4-0.8-0.6-1.5-0.6c-0.1,0-0.3,0-0.5,0c-0.2,0-0.3,0-0.5,0.1v3.8c0.1,0.1,0.3,0.2,0.5,0.3c0.2,0.1,0.5,0.1,0.7,0.1
			c0.6,0,1-0.2,1.2-0.6S67.1,35.7,67.1,35.1z"/>
		<path class="st4" d="M69.8,34.9c0-0.6,0.1-1.1,0.3-1.5c0.2-0.4,0.4-0.8,0.7-1.1c0.3-0.3,0.6-0.5,1-0.7c0.4-0.1,0.8-0.2,1.2-0.2
			c0.9,0,1.6,0.3,2.2,0.9c0.5,0.6,0.8,1.4,0.8,2.6c0,0.1,0,0.2,0,0.3c0,0.1,0,0.2,0,0.3h-4.4c0,0.5,0.2,1,0.6,1.2s0.8,0.4,1.5,0.4
			c0.4,0,0.7,0,1-0.1c0.3-0.1,0.6-0.1,0.7-0.2l0.2,1.3c-0.1,0-0.2,0.1-0.4,0.1s-0.3,0.1-0.5,0.1c-0.2,0-0.4,0.1-0.6,0.1
			c-0.2,0-0.4,0-0.7,0c-0.6,0-1.1-0.1-1.5-0.3s-0.8-0.4-1.1-0.7c-0.3-0.3-0.5-0.7-0.6-1.1C69.9,35.9,69.8,35.4,69.8,34.9z
			 M74.3,34.2c0-0.2,0-0.4-0.1-0.6c-0.1-0.2-0.1-0.4-0.3-0.5c-0.1-0.1-0.3-0.3-0.4-0.3c-0.2-0.1-0.4-0.1-0.6-0.1
			c-0.2,0-0.4,0-0.6,0.1c-0.2,0.1-0.3,0.2-0.5,0.4c-0.1,0.1-0.2,0.3-0.3,0.5c-0.1,0.2-0.1,0.4-0.1,0.6H74.3z"/>
		<path class="st4" d="M76.6,40.8c-0.1,0-0.3,0-0.5,0c-0.2,0-0.4-0.1-0.5-0.1l0.2-1.3c0.2,0.1,0.4,0.1,0.7,0.1
			c0.4,0,0.6-0.1,0.8-0.3c0.1-0.2,0.2-0.5,0.2-0.9v-6.5H79v6.5c0,0.9-0.2,1.5-0.6,1.9C77.9,40.6,77.3,40.8,76.6,40.8z M79.1,29.8
			c0,0.3-0.1,0.5-0.3,0.7c-0.2,0.2-0.4,0.3-0.7,0.3c-0.3,0-0.5-0.1-0.7-0.3c-0.2-0.2-0.3-0.4-0.3-0.7c0-0.3,0.1-0.5,0.3-0.7
			c0.2-0.2,0.4-0.3,0.7-0.3c0.3,0,0.5,0.1,0.7,0.3C79,29.2,79.1,29.5,79.1,29.8z"/>
		<path class="st4" d="M82.5,37.1c0.4,0,0.7,0,0.9-0.1c0.2-0.1,0.3-0.3,0.3-0.5c0-0.2-0.1-0.4-0.3-0.6c-0.2-0.1-0.5-0.3-1-0.5
			c-0.3-0.1-0.5-0.2-0.8-0.3c-0.2-0.1-0.4-0.2-0.6-0.4c-0.2-0.2-0.3-0.3-0.4-0.6c-0.1-0.2-0.1-0.5-0.1-0.8c0-0.6,0.2-1.1,0.7-1.5
			c0.5-0.4,1.1-0.5,1.8-0.5c0.4,0,0.8,0,1.1,0.1c0.4,0.1,0.6,0.1,0.8,0.2L84.7,33c-0.2-0.1-0.4-0.1-0.7-0.2
			c-0.3-0.1-0.6-0.1-0.9-0.1c-0.3,0-0.6,0.1-0.8,0.2c-0.2,0.1-0.3,0.3-0.3,0.5c0,0.1,0,0.2,0.1,0.3c0,0.1,0.1,0.2,0.2,0.2
			c0.1,0.1,0.2,0.1,0.4,0.2c0.2,0.1,0.3,0.1,0.6,0.2c0.4,0.1,0.7,0.3,0.9,0.4c0.3,0.1,0.5,0.3,0.6,0.4c0.2,0.2,0.3,0.4,0.4,0.6
			c0.1,0.2,0.1,0.5,0.1,0.8c0,0.6-0.2,1.1-0.7,1.5c-0.5,0.3-1.2,0.5-2,0.5c-0.6,0-1.1,0-1.4-0.1c-0.4-0.1-0.6-0.2-0.8-0.2l0.3-1.3
			c0.2,0.1,0.5,0.2,0.8,0.3C81.8,37.1,82.1,37.1,82.5,37.1z"/>
		<path class="st4" d="M88.2,34.3c0.2-0.2,0.4-0.4,0.6-0.7c0.2-0.2,0.4-0.5,0.7-0.7c0.2-0.2,0.4-0.5,0.6-0.7
			c0.2-0.2,0.4-0.4,0.5-0.6h1.8c-0.4,0.5-0.9,1-1.4,1.5c-0.5,0.5-0.9,1-1.4,1.5c0.3,0.2,0.5,0.5,0.8,0.8c0.3,0.3,0.6,0.6,0.8,1
			c0.3,0.3,0.5,0.7,0.7,1c0.2,0.3,0.4,0.7,0.6,0.9h-1.8c-0.2-0.3-0.3-0.5-0.5-0.8c-0.2-0.3-0.4-0.6-0.6-0.8
			c-0.2-0.3-0.5-0.5-0.7-0.8c-0.2-0.2-0.5-0.4-0.7-0.6v3.1h-1.5v-8.6l1.5-0.3V34.3z"/>
		<path class="st4" d="M95.3,29.8c0,0.3-0.1,0.5-0.3,0.7c-0.2,0.2-0.4,0.3-0.7,0.3c-0.3,0-0.5-0.1-0.7-0.3c-0.2-0.2-0.3-0.4-0.3-0.7
			c0-0.3,0.1-0.5,0.3-0.7c0.2-0.2,0.4-0.3,0.7-0.3c0.3,0,0.5,0.1,0.7,0.3C95.2,29.2,95.3,29.5,95.3,29.8z M95.2,38.4h-1.5v-6.7h1.5
			V38.4z"/>
		<path class="st4" d="M96.7,34.9c0-0.6,0.1-1.1,0.3-1.5c0.2-0.4,0.4-0.8,0.7-1.1c0.3-0.3,0.6-0.5,1-0.7c0.4-0.1,0.8-0.2,1.2-0.2
			c0.9,0,1.6,0.3,2.2,0.9c0.5,0.6,0.8,1.4,0.8,2.6c0,0.1,0,0.2,0,0.3c0,0.1,0,0.2,0,0.3h-4.4c0,0.5,0.2,1,0.6,1.2s0.8,0.4,1.5,0.4
			c0.4,0,0.7,0,1-0.1c0.3-0.1,0.6-0.1,0.7-0.2l0.2,1.3c-0.1,0-0.2,0.1-0.4,0.1c-0.1,0-0.3,0.1-0.5,0.1c-0.2,0-0.4,0.1-0.6,0.1
			c-0.2,0-0.4,0-0.7,0c-0.6,0-1.1-0.1-1.5-0.3c-0.4-0.2-0.8-0.4-1.1-0.7c-0.3-0.3-0.5-0.7-0.6-1.1C96.8,35.9,96.7,35.4,96.7,34.9z
			 M101.2,34.2c0-0.2,0-0.4-0.1-0.6c-0.1-0.2-0.1-0.4-0.3-0.5c-0.1-0.1-0.3-0.3-0.4-0.3c-0.2-0.1-0.4-0.1-0.6-0.1
			c-0.2,0-0.4,0-0.6,0.1c-0.2,0.1-0.3,0.2-0.5,0.4c-0.1,0.1-0.2,0.3-0.3,0.5c-0.1,0.2-0.1,0.4-0.1,0.6H101.2z"/>
	</g>
	<g>
		<path class="st4" d="M37,44.3c0.8,0,1.5,0.2,1.9,0.5c0.4,0.3,0.7,0.8,0.7,1.4c0,0.3-0.1,0.6-0.2,0.9c-0.1,0.2-0.3,0.4-0.5,0.6
			c-0.2,0.1-0.5,0.3-0.8,0.3c-0.3,0.1-0.7,0.1-1.1,0.1h-0.7v2.2h-0.8v-5.8c0.2-0.1,0.5-0.1,0.8-0.1C36.5,44.3,36.8,44.3,37,44.3z
			 M37.1,45c-0.3,0-0.6,0-0.8,0v2.3h0.6c0.3,0,0.5,0,0.8-0.1c0.2,0,0.4-0.1,0.6-0.2c0.2-0.1,0.3-0.2,0.4-0.4s0.1-0.3,0.1-0.6
			c0-0.2,0-0.4-0.1-0.6c-0.1-0.1-0.2-0.3-0.4-0.4c-0.1-0.1-0.3-0.1-0.5-0.2C37.5,45.1,37.3,45,37.1,45z"/>
		<path class="st4" d="M44.2,47.9c0,0.3-0.1,0.7-0.2,0.9c-0.1,0.3-0.2,0.5-0.4,0.7c-0.2,0.2-0.4,0.4-0.7,0.5
			c-0.3,0.1-0.5,0.2-0.8,0.2c-0.3,0-0.6-0.1-0.8-0.2c-0.3-0.1-0.5-0.3-0.7-0.5c-0.2-0.2-0.3-0.4-0.4-0.7c-0.1-0.3-0.2-0.6-0.2-0.9
			c0-0.3,0.1-0.7,0.2-0.9c0.1-0.3,0.2-0.5,0.4-0.7c0.2-0.2,0.4-0.4,0.7-0.5c0.3-0.1,0.5-0.2,0.8-0.2c0.3,0,0.6,0.1,0.8,0.2
			c0.3,0.1,0.5,0.3,0.7,0.5c0.2,0.2,0.3,0.4,0.4,0.7C44.2,47.3,44.2,47.6,44.2,47.9z M43.4,47.9c0-0.5-0.1-0.9-0.3-1.2
			c-0.2-0.3-0.5-0.4-0.9-0.4s-0.7,0.1-0.9,0.4c-0.2,0.3-0.3,0.7-0.3,1.2s0.1,0.9,0.3,1.2c0.2,0.3,0.5,0.4,0.9,0.4s0.7-0.1,0.9-0.4
			C43.3,48.8,43.4,48.4,43.4,47.9z"/>
		<path class="st4" d="M46.6,50.2c-0.5,0-0.8-0.1-1-0.3c-0.2-0.2-0.3-0.5-0.3-0.9v-5.3l0.8-0.1v5.3c0,0.1,0,0.2,0,0.3
			c0,0.1,0.1,0.2,0.1,0.2c0.1,0.1,0.1,0.1,0.2,0.1c0.1,0,0.2,0,0.3,0.1L46.6,50.2z"/>
		<path class="st4" d="M48.6,49.6c0.3,0,0.6,0,0.7-0.1c0.2-0.1,0.2-0.2,0.2-0.4c0-0.2-0.1-0.3-0.2-0.5c-0.2-0.1-0.4-0.2-0.8-0.4
			c-0.2-0.1-0.3-0.1-0.5-0.2c-0.2-0.1-0.3-0.2-0.4-0.2c-0.1-0.1-0.2-0.2-0.3-0.3c-0.1-0.1-0.1-0.3-0.1-0.5c0-0.4,0.1-0.7,0.4-0.9
			c0.3-0.2,0.7-0.3,1.2-0.3c0.1,0,0.2,0,0.4,0c0.1,0,0.2,0,0.3,0.1c0.1,0,0.2,0,0.3,0.1c0.1,0,0.1,0,0.2,0.1l-0.1,0.7
			c-0.1,0-0.2-0.1-0.4-0.1s-0.4-0.1-0.7-0.1c-0.2,0-0.4,0-0.6,0.1c-0.2,0.1-0.2,0.2-0.2,0.4c0,0.1,0,0.2,0.1,0.3
			c0,0.1,0.1,0.1,0.2,0.2c0.1,0.1,0.2,0.1,0.3,0.2c0.1,0.1,0.2,0.1,0.4,0.2c0.2,0.1,0.4,0.2,0.6,0.2c0.2,0.1,0.3,0.2,0.4,0.3
			c0.1,0.1,0.2,0.2,0.3,0.4c0.1,0.1,0.1,0.3,0.1,0.5c0,0.4-0.2,0.7-0.5,0.9c-0.3,0.2-0.7,0.3-1.3,0.3c-0.4,0-0.7,0-0.9-0.1
			c-0.2-0.1-0.4-0.1-0.4-0.1l0.1-0.7c0.1,0,0.2,0.1,0.4,0.2C48,49.5,48.2,49.6,48.6,49.6z"/>
		<path class="st4" d="M52.9,47.8c0.2,0.1,0.3,0.3,0.5,0.5c0.2,0.2,0.4,0.4,0.6,0.6s0.4,0.4,0.5,0.7c0.2,0.2,0.3,0.4,0.4,0.6H54
			c-0.1-0.2-0.3-0.4-0.4-0.6c-0.2-0.2-0.3-0.4-0.5-0.6c-0.2-0.2-0.3-0.4-0.5-0.5c-0.2-0.2-0.3-0.3-0.5-0.4v2.1h-0.8v-6.4l0.8-0.1v4
			c0.1-0.1,0.3-0.3,0.4-0.4c0.2-0.2,0.3-0.3,0.5-0.5c0.2-0.2,0.3-0.3,0.4-0.5c0.1-0.2,0.3-0.3,0.4-0.4h0.9c-0.1,0.1-0.3,0.3-0.4,0.5
			c-0.2,0.2-0.3,0.3-0.5,0.5c-0.2,0.2-0.3,0.3-0.5,0.5C53.2,47.5,53,47.7,52.9,47.8z"/>
		<path class="st4" d="M57.1,45.7c0.3,0,0.6,0,0.8,0.1c0.2,0.1,0.4,0.2,0.5,0.3c0.1,0.1,0.2,0.3,0.3,0.5c0.1,0.2,0.1,0.4,0.1,0.7
			v2.7c-0.1,0-0.2,0-0.3,0c-0.1,0-0.3,0-0.4,0.1c-0.2,0-0.3,0-0.5,0c-0.2,0-0.4,0-0.5,0c-0.2,0-0.5,0-0.7-0.1S56,50,55.8,49.9
			c-0.2-0.1-0.3-0.3-0.4-0.4c-0.1-0.2-0.1-0.4-0.1-0.7c0-0.2,0-0.5,0.1-0.6c0.1-0.2,0.2-0.3,0.4-0.4c0.2-0.1,0.4-0.2,0.6-0.2
			c0.2-0.1,0.5-0.1,0.7-0.1c0.1,0,0.2,0,0.2,0c0.1,0,0.2,0,0.2,0c0.1,0,0.1,0,0.2,0s0.1,0,0.1,0v-0.2c0-0.1,0-0.3,0-0.4
			c0-0.1-0.1-0.2-0.2-0.3c-0.1-0.1-0.2-0.2-0.3-0.2c-0.1-0.1-0.3-0.1-0.5-0.1c-0.3,0-0.5,0-0.7,0.1c-0.2,0-0.3,0.1-0.4,0.1l-0.1-0.7
			c0.1,0,0.3-0.1,0.5-0.1C56.5,45.7,56.8,45.7,57.1,45.7z M57.1,49.6c0.2,0,0.4,0,0.5,0c0.1,0,0.3,0,0.4,0v-1.3
			c-0.1,0-0.1-0.1-0.3-0.1c-0.1,0-0.3,0-0.5,0c-0.1,0-0.2,0-0.4,0c-0.1,0-0.3,0.1-0.4,0.1c-0.1,0.1-0.2,0.1-0.3,0.2
			c-0.1,0.1-0.1,0.2-0.1,0.4c0,0.3,0.1,0.5,0.3,0.6C56.6,49.5,56.8,49.6,57.1,49.6z"/>
		<path class="st4" d="M64.5,50.3c-0.4,0-0.8-0.1-1.1-0.2c-0.3-0.1-0.6-0.3-0.9-0.6c-0.2-0.3-0.4-0.6-0.6-1
			c-0.1-0.4-0.2-0.8-0.2-1.3c0-0.5,0.1-0.9,0.2-1.3c0.1-0.4,0.4-0.7,0.6-1c0.3-0.3,0.5-0.5,0.9-0.6c0.3-0.1,0.7-0.2,1.1-0.2
			c0.2,0,0.5,0,0.7,0.1c0.2,0,0.4,0.1,0.5,0.1c0.1,0,0.3,0.1,0.4,0.1c0.1,0,0.2,0.1,0.2,0.1L66,45.2c-0.1,0-0.1-0.1-0.2-0.1
			c-0.1,0-0.2-0.1-0.3-0.1s-0.3-0.1-0.4-0.1c-0.1,0-0.3,0-0.4,0c-0.3,0-0.6,0.1-0.8,0.2c-0.2,0.1-0.5,0.3-0.6,0.5
			c-0.2,0.2-0.3,0.4-0.4,0.7c-0.1,0.3-0.1,0.6-0.1,1c0,0.3,0,0.7,0.1,1c0.1,0.3,0.2,0.5,0.4,0.7c0.2,0.2,0.4,0.4,0.6,0.5
			c0.2,0.1,0.5,0.2,0.9,0.2c0.4,0,0.7,0,0.9-0.1c0.2-0.1,0.4-0.1,0.6-0.2l0.2,0.7c0,0-0.1,0.1-0.2,0.1c-0.1,0-0.2,0.1-0.4,0.1
			c-0.2,0-0.3,0.1-0.5,0.1C64.9,50.2,64.7,50.3,64.5,50.3z"/>
		<path class="st4" d="M66.5,51.1c0.1,0,0.1,0.1,0.2,0.1c0.1,0,0.2,0,0.3,0c0.3,0,0.6-0.1,0.7-0.2c0.2-0.1,0.3-0.4,0.5-0.7
			c-0.4-0.7-0.7-1.4-1-2.2c-0.3-0.8-0.6-1.5-0.8-2.3h0.8c0.1,0.3,0.1,0.5,0.2,0.8c0.1,0.3,0.2,0.6,0.3,0.9c0.1,0.3,0.2,0.6,0.3,0.9
			c0.1,0.3,0.3,0.6,0.4,0.9c0.2-0.6,0.4-1.2,0.6-1.8c0.2-0.6,0.3-1.2,0.4-1.8h0.8c-0.2,0.8-0.4,1.6-0.7,2.4
			c-0.2,0.8-0.5,1.5-0.8,2.1c-0.1,0.3-0.2,0.5-0.4,0.7c-0.1,0.2-0.3,0.3-0.4,0.5c-0.1,0.1-0.3,0.2-0.5,0.3c-0.2,0.1-0.4,0.1-0.6,0.1
			c-0.1,0-0.1,0-0.2,0c-0.1,0-0.1,0-0.2,0c-0.1,0-0.1,0-0.2,0c-0.1,0-0.1,0-0.1,0L66.5,51.1z"/>
		<path class="st4" d="M72.8,43.7c0.2,0,0.4,0,0.6,0.1c0.2,0,0.3,0.1,0.4,0.1l-0.1,0.7c-0.1,0-0.2-0.1-0.3-0.1c-0.1,0-0.3,0-0.5,0
			c-0.4,0-0.6,0.1-0.8,0.3c-0.1,0.2-0.2,0.5-0.2,0.8v0.4h1.7v0.7h-1.7v3.7h-0.8v-4.8c0-0.6,0.1-1,0.4-1.3
			C71.8,43.8,72.2,43.7,72.8,43.7z"/>
		<path class="st4" d="M76,45.8c0.1,0,0.1,0,0.2,0c0.1,0,0.2,0,0.3,0c0.1,0,0.2,0,0.2,0c0.1,0,0.1,0,0.2,0l-0.1,0.7
			c-0.1,0-0.2,0-0.3-0.1c-0.1,0-0.3,0-0.6,0c-0.1,0-0.3,0-0.4,0c-0.1,0-0.2,0.1-0.3,0.1v3.7h-0.8V46c0.2-0.1,0.4-0.1,0.7-0.2
			C75.3,45.8,75.6,45.8,76,45.8z"/>
		<path class="st4" d="M81.4,47.9c0,0.3-0.1,0.7-0.2,0.9c-0.1,0.3-0.2,0.5-0.4,0.7c-0.2,0.2-0.4,0.4-0.7,0.5
			c-0.3,0.1-0.5,0.2-0.8,0.2c-0.3,0-0.6-0.1-0.8-0.2c-0.3-0.1-0.5-0.3-0.7-0.5c-0.2-0.2-0.3-0.4-0.4-0.7c-0.1-0.3-0.2-0.6-0.2-0.9
			c0-0.3,0.1-0.7,0.2-0.9c0.1-0.3,0.2-0.5,0.4-0.7c0.2-0.2,0.4-0.4,0.7-0.5c0.3-0.1,0.5-0.2,0.8-0.2c0.3,0,0.6,0.1,0.8,0.2
			c0.3,0.1,0.5,0.3,0.7,0.5c0.2,0.2,0.3,0.4,0.4,0.7C81.4,47.3,81.4,47.6,81.4,47.9z M80.6,47.9c0-0.5-0.1-0.9-0.3-1.2
			c-0.2-0.3-0.5-0.4-0.9-0.4c-0.4,0-0.7,0.1-0.9,0.4c-0.2,0.3-0.3,0.7-0.3,1.2s0.1,0.9,0.3,1.2c0.2,0.3,0.5,0.4,0.9,0.4
			c0.4,0,0.7-0.1,0.9-0.4C80.5,48.8,80.6,48.4,80.6,47.9z"/>
		<path class="st4" d="M86,50.2c-0.2-0.4-0.3-0.9-0.5-1.4c-0.2-0.5-0.3-1.1-0.5-1.6c-0.1,0.6-0.3,1.1-0.5,1.6
			c-0.2,0.5-0.3,1-0.5,1.4h-0.7c-0.3-0.6-0.5-1.2-0.8-2c-0.2-0.7-0.5-1.5-0.7-2.4h0.8c0.1,0.3,0.1,0.6,0.2,0.9
			c0.1,0.3,0.2,0.6,0.2,0.9c0.1,0.3,0.2,0.6,0.3,0.9s0.2,0.5,0.3,0.8c0.1-0.3,0.2-0.5,0.3-0.8c0.1-0.3,0.2-0.6,0.3-0.9
			c0.1-0.3,0.2-0.6,0.2-0.9c0.1-0.3,0.1-0.6,0.2-0.8h0.7c0.1,0.3,0.1,0.5,0.2,0.8c0.1,0.3,0.2,0.6,0.2,0.9c0.1,0.3,0.2,0.6,0.3,0.9
			c0.1,0.3,0.2,0.6,0.3,0.8c0.1-0.2,0.2-0.5,0.3-0.8c0.1-0.3,0.2-0.6,0.3-0.9c0.1-0.3,0.2-0.6,0.3-0.9c0.1-0.3,0.1-0.6,0.2-0.9h0.8
			c-0.2,0.9-0.5,1.7-0.7,2.4c-0.2,0.7-0.5,1.4-0.8,2H86z"/>
		<path class="st4" d="M90.3,45.7c0.3,0,0.6,0,0.8,0.1c0.2,0.1,0.4,0.2,0.5,0.3c0.1,0.1,0.2,0.3,0.3,0.5c0.1,0.2,0.1,0.4,0.1,0.7
			v2.7c-0.1,0-0.2,0-0.3,0c-0.1,0-0.3,0-0.4,0.1c-0.2,0-0.3,0-0.5,0c-0.2,0-0.4,0-0.5,0c-0.2,0-0.5,0-0.7-0.1
			c-0.2-0.1-0.4-0.1-0.5-0.2c-0.2-0.1-0.3-0.3-0.4-0.4c-0.1-0.2-0.1-0.4-0.1-0.7c0-0.2,0-0.5,0.1-0.6c0.1-0.2,0.2-0.3,0.4-0.4
			c0.2-0.1,0.4-0.2,0.6-0.2c0.2-0.1,0.5-0.1,0.7-0.1c0.1,0,0.2,0,0.2,0c0.1,0,0.2,0,0.2,0c0.1,0,0.1,0,0.2,0c0.1,0,0.1,0,0.1,0v-0.2
			c0-0.1,0-0.3,0-0.4c0-0.1-0.1-0.2-0.2-0.3c-0.1-0.1-0.2-0.2-0.3-0.2c-0.1-0.1-0.3-0.1-0.5-0.1c-0.3,0-0.5,0-0.7,0.1
			c-0.2,0-0.3,0.1-0.4,0.1l-0.1-0.7c0.1,0,0.3-0.1,0.5-0.1C89.8,45.7,90.1,45.7,90.3,45.7z M90.4,49.6c0.2,0,0.4,0,0.5,0
			c0.1,0,0.3,0,0.4,0v-1.3c-0.1,0-0.1-0.1-0.3-0.1c-0.1,0-0.3,0-0.5,0c-0.1,0-0.2,0-0.4,0c-0.1,0-0.3,0.1-0.4,0.1
			c-0.1,0.1-0.2,0.1-0.3,0.2c-0.1,0.1-0.1,0.2-0.1,0.4c0,0.3,0.1,0.5,0.3,0.6C89.9,49.5,90.1,49.6,90.4,49.6z"/>
	</g>
</g>
</svg>
